o Feather
v 0.000 0.040 0.560
v -0.105 0.040 0.370
v -0.185 0.040 0.120
v -0.135 0.040 -0.170
v -0.040 0.040 -0.350
v -0.018 0.040 -0.590
v 0.018 0.040 -0.590
v 0.040 0.040 -0.350
v 0.135 0.040 -0.170
v 0.185 0.040 0.120
v 0.105 0.040 0.370
v 0.000 0.040 0.000
v 0.000 0.000 0.560
v -0.105 0.000 0.370
v -0.185 0.000 0.120
v -0.135 0.000 -0.170
v -0.040 0.000 -0.350
v -0.018 0.000 -0.590
v 0.018 0.000 -0.590
v 0.040 0.000 -0.350
v 0.135 0.000 -0.170
v 0.185 0.000 0.120
v 0.105 0.000 0.370
v 0.000 0.000 0.000
f 12 2 1
f 12 3 2
f 12 4 3
f 12 5 4
f 12 6 5
f 12 7 6
f 12 8 7
f 12 9 8
f 12 10 9
f 12 11 10
f 12 1 11
f 24 13 14
f 24 14 15
f 24 15 16
f 24 16 17
f 24 17 18
f 24 18 19
f 24 19 20
f 24 20 21
f 24 21 22
f 24 22 23
f 24 23 13
f 1 13 14 2
f 2 14 15 3
f 3 15 16 4
f 4 16 17 5
f 5 17 18 6
f 6 18 19 7
f 7 19 20 8
f 8 20 21 9
f 9 21 22 10
f 10 22 23 11
f 11 23 13 1
